HIERARCHY
ROOT Pelvis
{
	OFFSET 0.000000 0.000000 0.000000
	CHANNELS 6 Xposition Yposition Zposition Xrotation Yrotation Zrotation
	JOINT LeftUpLeg_virtual
	{
		OFFSET 0.000000 0.000000 0.000000
		CHANNELS 3 Xrotation Yrotation Zrotation
		JOINT LeftUpLeg
		{
			OFFSET 18.735201 -5.666702 -4.541200
			CHANNELS 3 Xrotation Yrotation Zrotation
			JOINT LeftLeg
			{
				OFFSET -0.021200 -31.938179 0.493100
				CHANNELS 3 Xrotation Yrotation Zrotation
				JOINT LeftFoot
				{
					OFFSET 0.021200 -31.938179 -4.336299
					CHANNELS 3 Xrotation Yrotation Zrotation
					JOINT LeftToeBase
					{
						OFFSET 0.943001 -26.722000 15.023500
						CHANNELS 3 Xrotation Yrotation Zrotation
						End Site
						{
							OFFSET 0 0 0
						}
					}
				}
			}
		}
	}
	JOINT RightUpLeg_virtual
	{
		OFFSET 0.000000 0.000000 0.000000
		CHANNELS 3 Xrotation Yrotation Zrotation
		JOINT RightUpLeg
		{
			OFFSET -18.735201 -5.666702 -4.541200
			CHANNELS 3 Xrotation Yrotation Zrotation
			JOINT RightLeg
			{
				OFFSET 0.018946 -31.938133 0.493100
				CHANNELS 3 Xrotation Yrotation Zrotation
				JOINT RightFoot
				{
					OFFSET -0.018946 -31.938126 -4.336299
					CHANNELS 3 Xrotation Yrotation Zrotation
					JOINT RightToeBase
					{
						OFFSET -0.943001 -26.722004 15.023500
						CHANNELS 3 Xrotation Yrotation Zrotation
						End Site
						{
							OFFSET 0 0 0
						}
					}
				}
			}
		}
	}
	JOINT Hips_virtual
	{
		OFFSET 0.000000 0.000000 0.000000
		CHANNELS 3 Xrotation Yrotation Zrotation
		JOINT Hips
		{
			OFFSET -0.000000 -0.000000 -0.000000
			CHANNELS 3 Xrotation Yrotation Zrotation
			JOINT Spine
			{
				OFFSET 0.000000 10.199997 -0.299500
				CHANNELS 3 Xrotation Yrotation Zrotation
				JOINT Spine1
				{
					OFFSET 0.000000 11.900002 -1.516600
					CHANNELS 3 Xrotation Yrotation Zrotation
					JOINT Spine2
					{
						OFFSET 0.000000 13.600006 -2.842500
						CHANNELS 3 Xrotation Yrotation Zrotation
						JOINT Neck_virtual
						{
							OFFSET 0.000000 0.000000 0.000000
							CHANNELS 3 Xrotation Yrotation Zrotation
							JOINT Neck
							{
								OFFSET 0.000000 9.624100 -2.890100
								CHANNELS 3 Xrotation Yrotation Zrotation
								JOINT Head
								{
									OFFSET 0.000000 14.068802 -1.351900
									CHANNELS 3 Xrotation Yrotation Zrotation
									End Site
									{
										OFFSET 0 0 0
									}
								}
							}
						}
						JOINT LeftShoulder_virtual
						{
							OFFSET 0.000000 0.000000 0.000000
							CHANNELS 3 Xrotation Yrotation Zrotation
							JOINT LeftShoulder
							{
								OFFSET 15.263000 10.923401 -0.547700
								CHANNELS 3 Xrotation Yrotation Zrotation
								JOINT LeftArm
								{
									OFFSET 25.438599 -2.830597 -13.032500
									CHANNELS 3 Xrotation Yrotation Zrotation
									JOINT LeftForeArm
									{
										OFFSET 29.960503 0.000000 0.000000
										CHANNELS 3 Xrotation Yrotation Zrotation
										JOINT LeftHand
										{
											OFFSET 27.849251 0.000000 0.000000
											CHANNELS 3 Xrotation Yrotation Zrotation
											End Site
											{
												OFFSET 0 0 0
											}
										}
									}
								}
							}
						}
						JOINT RightShoulder_virtual
						{
							OFFSET 0.000000 0.000000 0.000000
							CHANNELS 3 Xrotation Yrotation Zrotation
							JOINT RightShoulder
							{
								OFFSET -15.263000 10.923401 -0.547700
								CHANNELS 3 Xrotation Yrotation Zrotation
								JOINT RightArm
								{
									OFFSET -25.438599 -2.830597 -13.032500
									CHANNELS 3 Xrotation Yrotation Zrotation
									JOINT RightForeArm
									{
										OFFSET -29.960503 0.000000 0.000000
										CHANNELS 3 Xrotation Yrotation Zrotation
										JOINT RightHand
										{
											OFFSET -27.849251 0.000000 0.000000
											CHANNELS 3 Xrotation Yrotation Zrotation
											End Site
											{
												OFFSET 0 0 0
											}
										}
									}
								}
							}
						}
					}
				}
			}
		}
	}
}
MOTION
Frames: 12
Frame Time: 0.03333333
3.417580 88.569237 -8.581451 0.000000 0.000000 0.000000 22.071348 -36.439097 -22.164541 -45.848502 18.632543 9.040205 42.008966 -4.285149 -2.794530 -11.154729 -2.472585 -12.142156 0.000000 0.000000 0.000000 -47.529675 81.235565 65.261699 -42.712386 7.870140 -3.557063 33.897826 -2.398597 1.734476 -17.097239 -7.267483 12.264861 0.000000 0.000000 0.000000 2.741441 34.359895 -0.430297 -170.310248 46.553760 177.066644 12.959221 -2.481982 -0.865260 6.574970 -0.710965 -0.945093 0.000000 0.000000 0.000000 5.700455 -0.486284 -1.512228 0.504692 -0.072416 -0.456960 0.000000 0.000000 0.000000 11.602702 0.434106 -1.452296 6.151789 -8.134400 -7.772225 -0.974964 -2.087035 -43.578721 3.973551 -28.507108 -1.284256 0.000000 0.000000 0.000000 7.161440 -0.508354 -0.982891 3.541597 -0.662633 -0.059738 -10.259707 -2.530464 46.980579 -7.230822 50.029524 10.077155 0.000000 0.000000 0.000000 
3.174923 88.408676 -8.333440 0.000000 0.000000 0.000000 24.242083 -26.840564 -22.787507 -44.692366 20.230208 9.642616 41.750361 -4.004985 -2.966318 -11.177204 -2.138948 -12.218747 0.000000 0.000000 0.000000 -63.273226 83.069696 79.371702 -42.441549 9.422664 -3.739298 33.760402 -2.035156 1.705890 -17.113208 -6.920036 12.435524 0.000000 0.000000 0.000000 3.073405 35.951035 -0.691463 -171.939658 49.819994 178.384365 12.957502 -2.383971 -0.938233 6.602872 -0.644689 -0.972626 0.000000 0.000000 0.000000 5.699665 -0.542643 -1.535835 0.484039 -0.115117 -0.454267 0.000000 0.000000 0.000000 11.636812 0.425575 -1.515083 6.060651 -8.287273 -7.896778 -0.923319 -1.853352 -43.384002 4.024540 -28.309814 -1.232794 0.000000 0.000000 0.000000 7.232323 -0.448880 -1.064580 3.534461 -0.704757 -0.376690 -10.037275 -2.601797 46.363505 -7.060197 49.844258 9.842505 0.000000 0.000000 0.000000 
2.738131 88.096794 -7.867314 0.000000 0.000000 0.000000 28.027522 -9.877418 -24.687089 -42.697903 23.060151 10.654550 41.321866 -3.513697 -3.283910 -11.210405 -1.540044 -12.382423 0.000000 0.000000 0.000000 -102.907011 84.250793 116.371534 -41.998181 12.129759 -4.076238 33.633235 -1.366749 1.645915 -17.062893 -6.263348 12.740512 0.000000 0.000000 0.000000 3.716330 38.646559 -1.208826 -175.206988 55.013072 -178.929591 12.946506 -2.213755 -1.070372 6.656808 -0.532579 -1.026531 0.000000 0.000000 0.000000 5.692504 -0.645028 -1.581517 0.444050 -0.197095 -0.450178 0.000000 0.000000 0.000000 11.696474 0.412412 -1.626873 5.886096 -8.565739 -8.107222 -0.781374 -1.434429 -43.017085 4.132267 -27.978246 -1.131749 0.000000 0.000000 0.000000 7.368155 -0.332685 -1.213848 3.514078 -0.762955 -0.957321 -9.624157 -2.739594 45.195307 -6.719751 49.463649 9.386620 0.000000 0.000000 0.000000 
2.188338 87.647202 -7.241392 0.000000 0.000000 0.000000 33.074330 9.876914 -28.263758 -40.349913 26.517795 11.823425 40.863591 -2.920812 -3.706643 -11.236082 -0.787748 -12.645754 0.000000 0.000000 0.000000 -140.623992 82.437815 151.206509 -41.543208 15.379950 -4.511766 33.739639 -0.491498 1.546887 -16.822414 -5.364180 13.117819 0.000000 0.000000 0.000000 4.630040 41.723881 -1.960262 179.785469 60.624295 -174.720282 12.918051 -2.013762 -1.238505 6.733379 -0.407774 -1.103798 0.000000 0.000000 0.000000 5.671606 -0.774728 -1.646189 0.387214 -0.311190 -0.446720 0.000000 0.000000 0.000000 11.768162 0.401303 -1.764478 5.643261 -8.924518 -8.342209 -0.484501 -0.907853 -42.518426 4.305773 -27.611793 -0.983948 0.000000 0.000000 0.000000 7.560914 -0.165265 -1.406553 3.474208 -0.798270 -1.708612 -9.078076 -2.939731 43.595585 -6.222129 48.874173 8.740622 0.000000 0.000000 0.000000 
1.615310 87.072052 -6.536100 0.000000 0.000000 0.000000 39.187883 27.605951 -33.404621 -38.109143 29.969791 12.975494 40.515589 -2.334688 -4.193474 -11.236616 0.001267 -13.011942 0.000000 0.000000 0.000000 -157.693919 79.550004 165.621323 -41.247133 18.590697 -4.973477 34.278780 0.482781 1.396995 -16.284059 -4.301705 13.498521 0.000000 0.000000 0.000000 5.757925 44.537225 -2.895427 172.726605 65.750659 -168.630404 12.872215 -1.828514 -1.417273 6.828310 -0.303973 -1.198975 0.000000 0.000000 0.000000 5.632892 -0.908320 -1.725540 0.316808 -0.446582 -0.445968 0.000000 0.000000 0.000000 11.838703 0.400000 -1.902248 5.352725 -9.313444 -8.541694 0.038550 -0.353691 -41.938304 4.554090 -27.308201 -0.791668 0.000000 0.000000 0.000000 7.805233 0.045185 -1.615128 3.415282 -0.777735 -2.520558 -8.470967 -3.206977 41.717457 -5.602878 48.066978 7.955941 0.000000 0.000000 0.000000 
1.095622 86.379929 -5.839867 0.000000 0.000000 0.000000 45.939446 40.927672 -39.539098 -36.281845 32.945096 14.053013 40.378661 -1.828360 -4.712320 -11.199896 0.740888 -13.467539 0.000000 0.000000 0.000000 -165.304389 77.107925 170.965946 -41.240235 21.371568 -5.401617 35.351297 1.467365 1.185630 -15.401619 -3.150026 13.827263 0.000000 0.000000 0.000000 7.033441 46.705759 -3.939336 163.025810 70.020470 -160.023464 12.822221 -1.690723 -1.586190 6.937581 -0.244163 -1.304448 0.000000 0.000000 0.000000 5.578439 -1.022497 -1.814908 0.236258 -0.590093 -0.449663 0.000000 0.000000 0.000000 11.900006 0.415785 -2.018819 5.036502 -9.688040 -8.667528 0.846762 0.165760 -41.328020 4.883809 -27.133671 -0.555450 0.000000 0.000000 0.000000 8.100433 0.287932 -1.815368 3.346627 -0.689290 -3.291103 -7.872465 -3.561251 39.724134 -4.919643 47.041535 7.098641 0.000000 0.000000 0.000000 
0.680114 85.579056 -5.229647 0.000000 0.000000 0.000000 52.561588 49.920439 -45.750786 -34.976818 35.216892 15.059582 40.499149 -1.426179 -5.243263 -11.120322 1.393280 -13.984288 0.000000 0.000000 0.000000 -169.063697 75.399462 172.825725 -41.580648 23.561801 -5.777404 36.939077 2.410591 0.909174 -14.204708 -1.963904 14.076575 0.000000 0.000000 0.000000 8.392509 48.133200 -5.011845 149.954508 73.247898 -148.114961 12.792473 -1.613388 -1.733683 7.058920 -0.234960 -1.411778 0.000000 0.000000 0.000000 5.515480 -1.099102 -1.910402 0.148411 -0.728824 -0.459170 0.000000 0.000000 0.000000 11.951380 0.454680 -2.101305 4.713554 -10.014323 -8.712010 1.972779 0.614485 -40.734367 5.297341 -27.111428 -0.274506 0.000000 0.000000 0.000000 8.448480 0.550124 -1.991245 3.282462 -0.546843 -3.946058 -7.333515 -4.039430 37.765772 -4.237797 45.801083 6.235410 0.000000 0.000000 0.000000 
0.391737 84.682976 -4.753001 0.000000 0.000000 0.000000 58.239240 55.662616 -51.114738 -34.134389 36.774906 15.993393 40.875680 -1.112259 -5.777988 -10.996233 1.964191 -14.529161 0.000000 0.000000 0.000000 -171.040887 74.321515 173.176427 -42.248921 25.181202 -6.130727 38.933636 3.300618 0.572035 -12.782171 -0.771749 14.249007 0.000000 0.000000 0.000000 9.785456 48.923190 -6.049902 133.390507 75.229001 -132.712051 12.811811 -1.590001 -1.856915 7.193362 -0.268147 -1.513442 0.000000 0.000000 0.000000 5.452746 -1.129041 -2.009674 0.055150 -0.853308 -0.475480 0.000000 0.000000 0.000000 11.999088 0.521376 -2.146034 4.397005 -10.269371 -8.692959 3.413336 0.982576 -40.199543 5.790560 -27.226548 0.050679 0.000000 0.000000 0.000000 8.849518 0.817562 -2.136607 3.234780 -0.385634 -4.448590 -6.877206 -4.691805 35.959368 -3.611974 44.343859 5.418081 0.000000 0.000000 0.000000 
0.230616 83.713455 -4.419004 0.000000 0.000000 0.000000 62.512487 59.236182 -55.100123 -33.603493 37.743847 16.826065 41.480299 -0.852614 -6.317571 -10.824935 2.482024 -15.077142 0.000000 0.000000 0.000000 -172.190066 73.674778 172.873727 -43.167335 26.352214 -6.522682 41.189640 4.154711 0.182333 -11.247103 0.422100 14.367055 0.000000 0.000000 0.000000 11.179228 49.267780 -7.017643 115.075164 75.816001 -115.477025 12.906057 -1.601214 -1.958379 7.345802 -0.327292 -1.604337 0.000000 0.000000 0.000000 5.396950 -1.113721 -2.111894 -0.042385 -0.959665 -0.499016 0.000000 0.000000 0.000000 12.053468 0.619111 -2.156650 4.093567 -10.440753 -8.641141 5.122615 1.283116 -39.766420 6.348700 -27.438948 0.413887 0.000000 0.000000 0.000000 9.298320 1.075753 -2.253790 3.207431 -0.252579 -4.796727 -6.502466 -5.575173 34.375936 -3.075663 42.657810 4.675197 0.000000 0.000000 0.000000 
0.181910 82.697716 -4.201205 0.000000 0.000000 0.000000 65.408207 61.419329 -57.695434 -33.231619 38.298524 17.525241 42.284588 -0.619521 -6.869200 -10.597003 2.973033 -15.620561 0.000000 0.000000 0.000000 -173.056845 73.261586 172.388934 -44.231759 27.229394 -7.015347 43.575757 5.000826 -0.253435 -9.701339 1.626568 14.457470 0.000000 0.000000 0.000000 12.551783 49.360063 -7.902537 98.224623 75.164695 -99.554297 13.093106 -1.623449 -2.041761 7.524005 -0.395153 -1.682418 0.000000 0.000000 0.000000 5.352112 -1.063388 -2.217183 -0.142826 -1.049612 -0.529411 0.000000 0.000000 0.000000 12.124968 0.749133 -2.141269 3.804353 -10.526240 -8.588572 7.010282 1.547441 -39.484111 6.942230 -27.697247 0.799001 0.000000 0.000000 0.000000 9.784132 1.311228 -2.350175 3.194693 -0.195822 -5.012115 -6.199423 -6.743196 33.039230 -2.643230 40.725553 4.013689 0.000000 0.000000 0.000000 
0.223679 81.661644 -4.050323 0.000000 0.000000 0.000000 67.271421 62.714490 -59.233422 -32.930490 38.600421 18.086993 43.280819 -0.408399 -7.441903 -10.291881 3.443698 -16.171076 0.000000 0.000000 0.000000 -173.975778 72.922187 172.015787 -45.340315 27.950350 -7.647261 46.004749 5.859520 -0.732398 -8.212778 2.849438 14.538713 0.000000 0.000000 0.000000 13.885512 49.348851 -8.705711 84.890454 73.740792 -86.950999 13.381284 -1.635984 -2.108968 7.736397 -0.458371 -1.748316 0.000000 0.000000 0.000000 5.322064 -0.993110 -2.326075 -0.243108 -1.128451 -0.565567 0.000000 0.000000 0.000000 12.220761 0.909886 -2.110099 3.526206 -10.532816 -8.562953 8.948778 1.817335 -39.409280 7.526321 -27.951933 1.178874 0.000000 0.000000 0.000000 10.293837 1.512933 -2.434216 3.184339 -0.256202 -5.125566 -5.967599 -8.235591 31.937138 -2.319531 38.538755 3.427609 0.000000 0.000000 0.000000 
0.333588 80.623566 -3.911997 0.000000 0.000000 0.000000 68.518129 63.452806 -60.137118 -32.697468 38.764161 18.550546 44.488256 -0.242804 -8.041462 -9.878602 3.874906 -16.753996 0.000000 0.000000 0.000000 -175.120067 72.547134 171.917296 -46.411330 28.610189 -8.424453 48.436939 6.733476 -1.252624 -6.811228 4.086080 14.617752 0.000000 0.000000 0.000000 15.166288 49.333145 -9.435485 75.085642 72.042820 -77.675998 13.770299 -1.624402 -2.158974 7.989669 -0.508623 -1.803987 0.000000 0.000000 0.000000 5.314398 -0.918026 -2.439240 -0.337243 -1.202060 -0.605978 0.000000 0.000000 0.000000 12.343675 1.096457 -2.073946 3.253352 -10.474240 -8.588434 10.793381 2.134299 -39.598199 8.046829 -28.166754 1.519712 0.000000 0.000000 0.000000 10.816554 1.673483 -2.512195 3.163333 -0.461294 -5.164563 -5.825410 -10.068029 31.041164 -2.108934 36.114338 2.908239 0.000000 0.000000 0.000000 
